# xmcd CD database file
#
# Track frame offsets:
#	150
#	20328
#	67133
#	91299
#	156551
#
# Disc length: 2330 seconds
#
# Revision: 0
# Processed by: cddbd v1.5.2PL0 Copyright (c) Steve Scherf et al.
# Submitted via: CDex 1.51
#
DISCID=3e091805
DTITLE=Jean-Luc Ponty - Open Strings
DYEAR=1900
DGENRE=Jazz
TTITLE0=Flipping, Part I
TTITLE1=Flipping, Part II
TTITLE2=Flipping, Part III
TTITLE3=Open Strings
TTITLE4=Sad Ballad
EXTD=
EXTT0=
EXTT1=
EXTT2=
EXTT3=
EXTT4=
PLAYORDER=
